<?xml version="1.0" encoding="utf-8"?>
<!-- Generator: Adobe Illustrator 23.0.1, SVG Export Plug-In . SVG Version: 6.00 Build 0)  -->
<svg version="1.1" id="Layer_1" xmlns="http://www.w3.org/2000/svg" xmlns:xlink="http://www.w3.org/1999/xlink" x="0px" y="0px"
	 viewBox="0 0 193 177" style="enable-background:new 0 0 193 177;" xml:space="preserve">
<style type="text/css">
	.st0{clip-path:url(#SVGID_2_);}
	.st1{opacity:0.8;}
	.st2{fill:#F96270;}
	.st3{opacity:0.25;}
	.st4{fill:#E54E64;}
	.st5{fill:#FF7282;}
	.st6{fill:#E23052;}
	.st7{fill:none;stroke:#252D66;stroke-width:5;stroke-linecap:round;stroke-miterlimit:10;}
	.st8{fill:#252D66;}
</style>
<g>
	<defs>
		<rect id="SVGID_1_" width="193" height="177"/>
	</defs>
	<clipPath id="SVGID_2_">
		<use xlink:href="#SVGID_1_"  style="overflow:visible;"/>
	</clipPath>
	<g id="Artboard_5" class="st0">
		<g id="Group_12" transform="translate(-6 9)">
			<g id="Group_12-2" class="st1">
				
					<image style="overflow:visible;enable-background:new    ;" width="302" height="234" id="Rectangle_15" xlink:href="5457169EA9CF277D.png"  transform="matrix(0.6757 0 0 0.6757 9.155273e-05 0)">
				</image>
			</g>
			<g id="Group_16" transform="translate(16.217)">
				<g id="Group_14">
					<path id="Path_26" class="st2" d="M136.4,79.3c-3.5-32.4-30.8-56.9-63.4-56.9l0,0c-35.2,0-63.7,28.5-63.7,63.8l0,0
						c0,13.5,10.9,24.4,24.4,24.4h27c4,0,7.8,2.1,9.9,5.5c7.4,11.6,20.2,18.6,34,18.6l0,0c22.3,0,40.4-18.1,40.4-40.4V91
						C144.9,85.6,141.5,80.9,136.4,79.3z"/>
					<g id="Group_13" class="st3">
						
							<image style="overflow:visible;enable-background:new    ;" width="250" height="230" id="Rectangle_16" xlink:href="5457169EA9CF277F.png"  transform="matrix(0.6757 0 0 0.6757 3.281179e-04 0)">
						</image>
					</g>
					<path id="Path_27" class="st4" d="M33,59.6c-0.1-3.3,2.5-6,5.8-6.1l2.1-0.1c1.9-0.1,3.3-1.7,3.2-3.5c-0.1-1.8-1.6-3.3-3.4-3.2
						l-2.1,0.1c-7,0.2-12.6,6-12.4,13c0.1,1.9,1.7,3.3,3.5,3.2C31.6,63,33,61.5,33,59.6z"/>
					<path id="Path_28" class="st4" d="M67.2,37.2c-3.3,0.1-6-2.5-6.1-5.8L61,29.2c0-1.9-1.5-3.4-3.4-3.4s-3.4,1.5-3.4,3.4
						c0,0,0,0.1,0,0.1l0.1,2.1c0.2,7,6,12.6,13,12.4c1.9-0.1,3.3-1.7,3.2-3.5C70.5,38.6,69,37.2,67.2,37.2L67.2,37.2z"/>
					<path id="Path_29" class="st4" d="M19.5,78.5c3.3-0.1,6,2.5,6.1,5.8l0.1,2.1c0.1,1.9,1.7,3.3,3.5,3.2c1.8-0.1,3.3-1.6,3.2-3.4
						l-0.1-2.1c-0.2-7-6-12.6-13-12.4c-1.9,0.1-3.3,1.7-3.2,3.5C16.2,77.1,17.7,78.5,19.5,78.5L19.5,78.5z"/>
					<path id="Path_30" class="st5" d="M98.4,22.3h-1.9c-33.8,0-61.2,27.4-61.2,61.2v0l0,0c0,14.8,12,26.9,26.9,26.9l0,0H81
						c2.6,0,5,1.4,6.3,3.7c7.2,12.6,20.6,20.4,35.1,20.4l0,0c22.3,0,40.4-18.1,40.4-40.4v-7.5C162.7,51.1,133.9,22.3,98.4,22.3z"/>
				</g>
				<g id="Group_15" transform="translate(53.414 22.4)" class="st3">
					<path id="Path_31" class="st6" d="M52.4,22.8h5.3c1.9,0,3.4-1.5,3.4-3.3c0-1.9-1.5-3.4-3.3-3.4c0,0-0.1,0-0.1,0h-5.3
						c-3.5,0-6.4-2.9-6.4-6.4V0h-3.4c-1.1,0-2.3,0-3.4,0.1v9.5C39.2,16.9,45.1,22.7,52.4,22.8z"/>
					<path id="Path_32" class="st6" d="M108,53.7c-1.4,0.4-2.4,1.7-2.4,3.2v5.3c0,3.5-2.9,6.4-6.4,6.4h-9.5c-1.6,0-3.1,1.1-3.4,2.7
						c-0.4,1.8,0.8,3.6,2.6,4c0.2,0,0.5,0.1,0.7,0.1h9.6c3.8,0,7.3-1.6,9.8-4.4v-6.4C109,60.9,108.7,57.3,108,53.7z"/>
					<path id="Path_33" class="st6" d="M12,76.7c0-3.5,2.9-6.4,6.4-6.4h3.8c1.9,0,3.4-1.5,3.4-3.3c0-1.9-1.5-3.4-3.3-3.4
						c0,0-0.1,0-0.1,0h-3.8c-7.3,0-13.2,5.9-13.2,13.2v5.2c1.7,0.4,3.5,0.5,5.2,0.5H12L12,76.7z"/>
					<path id="Path_34" class="st6" d="M37.9,46.3c-1.9,0-3.4,1.5-3.4,3.3c0,1.9,1.5,3.4,3.3,3.4c0,0,0.1,0,0.1,0c3.3,0,6,2.7,6,6
						v2.1c0,1.9,1.6,3.4,3.4,3.3c1.8,0,3.3-1.5,3.3-3.3V59C50.6,52,44.9,46.3,37.9,46.3z"/>
					<path id="Path_35" class="st6" d="M85.5,32c0-1.9-1.5-3.4-3.3-3.4c-1.9,0-3.4,1.5-3.4,3.3c0,0,0,0.1,0,0.1c0,3.3-2.7,6-6,6
						h-2.1c-1.9,0-3.4,1.6-3.3,3.4c0,1.8,1.5,3.3,3.3,3.3h2.1C79.8,44.8,85.5,39.1,85.5,32z"/>
					<path id="Path_36" class="st6" d="M63.6,79c-1.9,0-3.4,1.5-3.4,3.3c0,1.9,1.5,3.4,3.3,3.4c0,0,0.1,0,0.1,0c3.3,0,6,2.7,6,6v2.1
						c0,1.9,1.6,3.4,3.4,3.3c1.8,0,3.3-1.5,3.3-3.3v-2.1C76.3,84.7,70.6,79,63.6,79z"/>
					<path id="Path_37" class="st6" d="M15.7,33.7c-2.3,2.4-6.1,2.5-8.4,0.2l-1.5-1.5c-1.4-1.3-3.5-1.2-4.8,0.2
						c-1.3,1.3-1.2,3.4,0.1,4.7l1.5,1.5c5.1,4.8,13.1,4.7,18-0.4c1.3-1.4,1.2-3.5-0.1-4.8C19.1,32.3,17,32.3,15.7,33.7L15.7,33.7z"
						/>
				</g>
			</g>
			<g id="Group_17" transform="translate(41.786 66.497)">
				<path id="Path_38" class="st7" d="M0,2.5C0.6,1,2.1,0,3.7,0l0,0c1.6,0,3.1,1,3.8,2.5"/>
				<path id="Path_39" class="st7" d="M23,2.5C23.6,1,25.1,0,26.7,0l0,0c1.6,0,3.1,1,3.8,2.5"/>
				<path id="Path_40" class="st8" d="M22.4,11.4c0.6,0,1.2,0.5,1.2,1.2c0,0.1,0,0.1,0,0.2c-0.7,4.1-4.2,7.1-8.3,7.1l0,0
					c-4.1,0-7.7-3-8.3-7.1c-0.1-0.6,0.3-1.2,1-1.3c0.1,0,0.1,0,0.2,0H22.4z"/>
			</g>
			<path id="Path_41" class="st8" d="M64.2,77.9c0.6,0,1.2,0.5,1.2,1.2c0,0.1,0,0.1,0,0.2c-0.7,4.1-4.2,7.1-8.3,7.1l0,0
				c-4.1,0-7.7-3-8.3-7.1c-0.1-0.6,0.3-1.2,1-1.3c0.1,0,0.1,0,0.2,0H64.2z"/>
		</g>
	</g>
</g>
</svg>
