<svg id="Layer_1" data-name="Layer 1" xmlns="http://www.w3.org/2000/svg" viewBox="0 0 71.62 73.72"><defs><style>.cls-1{fill:#a1a1c6;}</style></defs><title>like</title><path id="Path_1" data-name="Path 1" class="cls-1" d="M60.68,34a.94.94,0,0,1-.34-1.22,3.34,3.34,0,0,0,.37-1.52v-.79a4.26,4.26,0,0,0-4.26-4.26H48.31a2.83,2.83,0,0,1-2.83-2.83v-.2l.45-6.35c0-.26,0-.51,0-.77A6.31,6.31,0,0,0,39.58,10h0a2.82,2.82,0,0,0-2.81,2.66l-.11,2.13v0a20.47,20.47,0,0,1-.9,4.79L34,25.16l-.12.41a5.15,5.15,0,0,1-1.26,2l-1.74,1.79a4.27,4.27,0,0,1-3.05,1.29h0a1.64,1.64,0,0,0-1.66,1.63h0v18.8a1.64,1.64,0,0,0,1.65,1.64h1A4.22,4.22,0,0,1,30.3,53l5.08,1.77a18.1,18.1,0,0,0,5.88,1H55.41a4.26,4.26,0,0,0,4.26-4.26h0a3.16,3.16,0,0,0-.46-1.69,1,1,0,0,1,.22-1.27,3.3,3.3,0,0,0,1.29-2.62V44.15a3.27,3.27,0,0,0-.38-1.53.93.93,0,0,1,.35-1.22,3.31,3.31,0,0,0,1.6-2.83V36.83A3.36,3.36,0,0,0,60.68,34Z"/><g id="Group_1" data-name="Group 1"><path id="Path_2" data-name="Path 2" class="cls-1" d="M21.66,55H11.49a2.15,2.15,0,0,1-2.16-2.15V31.3a2.16,2.16,0,0,1,2.16-2.16H21.66a2.16,2.16,0,0,1,2.16,2.16V52.88A2.16,2.16,0,0,1,21.66,55Z"/></g></svg>